<svg width="500" height="550" xmlns="http://www.w3.org/2000/svg">
 <g>
  <title>Layer 1</title>
  <path id="svg_7" d="m250.00002,230.83875c102.24921,-234.48823 502.86498,0 0,301.48487c-502.86498,-301.48487 -102.24921,-535.97311 0,-301.48487z" stroke-width="20" fill="#e24848"/>
  <ellipse ry="220.99999" rx="247.5" id="svg_17" cy="223.00001" cx="249.50001" stroke-width="20" fill="#e24848"/>
  <g transform="rotate(20.7042, 183.767, 398)" id="svg_22">
   <ellipse ry="52" rx="15.5" id="svg_19" cy="398" cx="182.5" stroke-width="20" fill="#000000"/>
   <ellipse transform="rotate(28.1539, 174.5, 398)" ry="52" rx="15.5" id="svg_20" cy="398" cx="174.5" stroke-width="20" fill="#000000"/>
   <ellipse transform="rotate(-32.1376, 190.5, 399)" ry="52" rx="15.5" id="svg_21" cy="399" cx="190.5" stroke-width="20" fill="#000000"/>
  </g>
  <g transform="rotate(-21.8135, 331.767, 401)" id="svg_26">
   <ellipse ry="52" rx="15.5" id="svg_23" cy="401" cx="330.5" stroke-width="20" fill="#000000"/>
   <ellipse transform="rotate(28.1539, 322.5, 401)" ry="52" rx="15.5" id="svg_24" cy="401" cx="322.5" stroke-width="20" fill="#000000"/>
   <ellipse transform="rotate(-32.1376, 338.5, 402)" ry="52" rx="15.5" id="svg_25" cy="402" cx="338.5" stroke-width="20" fill="#000000"/>
  </g>
  <g id="svg_3">
   <g transform="matrix(0, 1.31699, -1.54917, 0, 1131.66, 377.176)" id="svg_60" stroke="null">
    <ellipse stroke-width="0" ry="58.10005" rx="65.73077" id="svg_57" cy="498.99851" cx="-67.04254" fill="#677568" stroke="#000"/>
    <rect id="svg_58" height="139.2753" width="131.46155" y="496.93823" x="-132.77332" stroke-width="0" fill="#677568" stroke="#000"/>
    <ellipse stroke-width="0" ry="58.10005" rx="65.73077" id="svg_59" cy="631.49071" cx="-67.04254" fill="#677568" stroke="#000"/>
   </g>
   <g id="svg_5" stroke="null">
    <ellipse stroke-width="0" ry="82.86196" rx="144.90774" id="svg_1" cy="108.23123" cx="252.99128" fill="#677568" stroke="#000"/>
    <rect id="svg_2" height="198.63361" width="289.81548" y="105.29287" x="108.08351" stroke-width="0" fill="#677568" stroke="#000"/>
    <ellipse stroke-width="0" ry="82.86196" rx="144.90774" id="svg_4" cy="297.19084" cx="252.99128" fill="#677568" stroke="#000"/>
   </g>
   <g id="svg_16" stroke="null">
    <ellipse ry="40.29996" rx="102.57103" id="svg_10" cy="206.91009" cx="254.84383" stroke-width="0" fill="#b0b2b0" stroke="#000"/>
    <ellipse ry="29.5533" rx="103.09434" id="svg_12" cy="371.69217" cx="255.36715" stroke-width="0" fill="#b0b2b0" stroke="#000"/>
    <rect id="svg_13" height="166.5732" width="205.14204" y="206.01453" x="152.2728" stroke-width="0" fill="#b0b2b0" stroke="#000"/>
   </g>
   <g id="svg_37" stroke="null">
    <path stroke-opacity="0" id="svg_34" d="m293.10541,160.9027l-34.97724,74.00062l-34.97724,-74.00062l69.9545,0l-0.00001,0l-0.00001,0z" stroke-width="8" fill="#000000" stroke="#677568"/>
    <ellipse ry="12.55368" rx="34.97727" id="svg_35" cy="158.27094" cx="258.62966" stroke-opacity="0" stroke-width="8" fill="#000000" stroke="#677568"/>
   </g>
   <path fill-opacity="0" stroke-width="20" id="svg_38" d="m228.77325,134.92648c13.70597,-11.80428 54.82385,-9.44342 61.67682,1.18044" opacity="NaN" fill="#0000ff" stroke="#ffffff"/>
   <g id="svg_9" stroke="null">
    <ellipse ry="42.0032" rx="41.93893" id="svg_46" cy="148.6449" cx="381.57618" stroke-opacity="0" stroke-width="8" fill="#000000" stroke="#ffffff"/>
    <ellipse fill="#ffffff" stroke-width="8" stroke-opacity="0" cx="401.58039" cy="132.61009" id="svg_6" rx="18.43722" ry="18.43722" stroke="#ffffff"/>
   </g>
   <g id="svg_15" stroke="null">
    <ellipse ry="42.0032" rx="41.93893" id="svg_11" cy="150.68661" cx="129.41789" stroke-opacity="0" stroke-width="8" fill="#000000" stroke="#ffffff"/>
    <ellipse fill="#ffffff" stroke-width="8" stroke-opacity="0" cx="149.42209" cy="134.6518" id="svg_14" rx="18.43722" ry="18.43722" stroke="#ffffff"/>
   </g>
  </g>
 </g>

</svg>